<?xml version="1.0" standalone="no"?>
<!DOCTYPE svg PUBLIC "-//W3C//DTD SVG 20010904//EN"
 "http://www.w3.org/TR/2001/REC-SVG-20010904/DTD/svg10.dtd">
<svg version="1.0" xmlns="http://www.w3.org/2000/svg"
 width="990.000000pt" height="990.000000pt" viewBox="0 0 990.000000 990.000000"
 preserveAspectRatio="xMidYMid meet">
<metadata>
Created by potrace 1.11, written by Peter Selinger 2001-2013
</metadata>
<g transform="translate(0.000000,990.000000) scale(0.100000,-0.100000)"
fill="#000000" stroke="none">
<path d="M4688 9895 c-1 -1 -51 -6 -110 -9 -59 -4 -117 -9 -130 -11 -13 -2
-52 -6 -88 -10 -36 -4 -74 -9 -85 -11 -11 -1 -40 -6 -65 -9 -35 -4 -190 -32
-275 -49 -288 -58 -700 -189 -962 -307 -371 -167 -682 -348 -994 -580 -68 -50
-126 -95 -129 -98 -3 -4 -32 -29 -65 -56 -757 -625 -1324 -1495 -1594 -2445
-40 -139 -92 -359 -110 -465 -6 -33 -13 -73 -16 -90 -2 -16 -7 -50 -10 -75 -3
-25 -8 -54 -10 -65 -2 -11 -7 -47 -10 -80 -4 -33 -8 -71 -11 -85 -25 -160 -25
-827 1 -1005 2 -16 7 -50 10 -75 12 -108 20 -158 51 -343 8 -49 33 -159 60
-267 14 -58 27 -109 28 -115 2 -5 8 -30 15 -55 7 -25 13 -45 12 -45 -1 0 12
-40 29 -90 17 -49 33 -97 35 -105 16 -75 168 -435 261 -620 275 -548 633
-1018 1098 -1445 125 -114 115 -105 156 -136 19 -15 44 -35 55 -46 63 -59 538
-393 559 -393 4 0 23 -11 44 -24 143 -94 523 -278 737 -358 109 -41 244 -88
280 -98 17 -5 62 -18 100 -30 166 -51 483 -121 660 -145 22 -3 54 -7 70 -10
17 -3 55 -7 85 -10 30 -3 64 -8 75 -10 132 -26 849 -26 1009 0 12 2 48 6 80
10 74 7 108 12 221 31 50 9 104 18 120 21 107 17 391 88 555 138 126 38 367
129 513 192 106 47 361 175 380 191 9 8 17 12 17 9 0 -3 36 16 81 43 44 28 83
50 85 50 11 0 295 192 394 266 493 367 930 840 1247 1350 122 195 256 449 333
629 28 66 56 129 61 140 11 25 84 222 109 295 35 106 121 415 135 491 3 13 13
69 24 124 11 55 23 123 27 150 4 28 8 57 10 65 5 30 14 96 19 150 3 30 8 64
10 75 25 125 26 951 1 994 -2 3 -6 40 -10 81 -3 41 -8 86 -11 100 -2 14 -7 41
-9 60 -6 49 -40 241 -50 285 -1 6 -8 37 -15 70 -7 33 -20 85 -28 115 -8 30
-16 60 -17 65 -43 162 -135 448 -171 530 -8 17 -39 91 -70 165 -46 109 -174
372 -215 440 -5 8 -44 74 -86 145 -86 146 -206 323 -315 466 -210 274 -506
582 -763 794 -27 22 -54 45 -60 50 -19 19 -279 210 -341 252 -87 58 -269 170
-350 215 -80 44 -364 186 -416 207 -19 8 -59 25 -89 39 -306 138 -875 292
-1245 337 -27 4 -61 8 -75 11 -14 2 -59 6 -100 10 -41 3 -91 8 -110 10 -39 6
-636 14 -642 9z"/>
</g>
</svg>
